<?xml version="1.0" standalone="no"?>
<!DOCTYPE svg PUBLIC "-//W3C//DTD SVG 20010904//EN"
 "http://www.w3.org/TR/2001/REC-SVG-20010904/DTD/svg10.dtd">
<svg version="1.0" xmlns="http://www.w3.org/2000/svg"
 width="16.000000pt" height="16.000000pt" viewBox="0 0 16.000000 16.000000"
 preserveAspectRatio="xMidYMid meet">
<metadata>
Created by potrace 1.11, written by Peter Selinger 2001-2013
</metadata>
<g transform="translate(0.000000,16.000000) scale(0.002286,-0.002286)"
fill="#000000" stroke="none">
<path d="M5136 3809 c-301 -44 -557 -218 -677 -459 -69 -139 -91 -241 -90
-410 1 -208 45 -364 146 -516 120 -180 306 -313 650 -464 482 -212 557 -259
609 -385 22 -51 25 -147 8 -206 -28 -96 -132 -181 -263 -216 -77 -20 -247 -22
-334 -4 -83 17 -208 80 -283 142 -53 43 -157 167 -190 226 -7 12 -55 -11 -263
-132 -140 -81 -260 -153 -267 -159 -10 -10 -4 -26 29 -81 178 -298 453 -485
833 -567 86 -19 132 -22 316 -22 234 0 337 15 492 70 422 152 637 493 597 946
-13 157 -50 276 -120 395 -49 82 -198 229 -307 301 -97 65 -364 200 -537 272
-333 140 -441 226 -464 368 -23 143 33 251 159 311 48 23 67 26 155 25 79 0
112 -5 157 -22 77 -31 141 -82 194 -156 24 -33 49 -69 56 -79 12 -16 35 -3
262 143 138 88 252 163 255 165 2 3 -17 36 -42 74 -170 256 -369 386 -667 436
-92 16 -318 18 -414 4z"/>
<path d="M3157 3783 c-4 -3 -7 -532 -7 -1174 0 -827 -3 -1183 -11 -1221 -23
-107 -81 -186 -167 -225 -28 -13 -67 -17 -157 -17 -112 -1 -124 1 -177 27 -68
33 -151 119 -209 217 -23 39 -45 73 -50 75 -6 4 -505 -290 -528 -311 -18 -17
103 -200 198 -298 185 -192 415 -289 721 -302 360 -17 640 85 828 300 98 112
177 307 202 496 5 45 10 554 10 1258 l0 1182 -323 0 c-178 0 -327 -3 -330 -7z"/>
</g>
</svg>
